PathFileType  4	(X/Y/Z) C:\MyRepositories_Xander\mocap-processing\Testing_HJC_Function\TRCs_w_HJCs
DataRate	CameraRate	NumFrames	NumMarkers	Units	OrigDataRate	OrigDataStartFrame	OrigNumFrames
  240.0		  240.0		    4		    151		 mm	  240.0	      205	    544
Frame#	Time	LFHD			RFHD			LBHD			C7			T10			CLAV			STRN			RBAK			LSHO			LUPA			LELB			LFRM			LWRA			LWRB			LFIN			RSHO			RUPA			RELB			RFRM			RWRA			RWRB			RFIN			LASI			RASI			LPSI			RPSI			SACR			LTHI			LKNE			LMKN			LTIB			LANK			LMED			LHEE			LTOE			RTHI			RKNE			RMKN			RTIB			RANK			RMED			RHEE			RTOE			PELO			PELA			PELL			PELP			LFEO			LFEA			LFEL			LFEP			LTIO			LTIA			LTIL			LTIP			LFOO			LFOA			LFOL			LFOP			LTOO			LTOA			LTOL			LTOP			RFEO			RFEA			RFEL			RFEP			RTIO			RTIA			RTIL			RTIP			RFOO			RFOA			RFOL			RFOP			RTOO			RTOA			RTOL			RTOP			HEDO			HEDA			HEDL			HEDP			LCLO			LCLA			LCLL			LCLP			RCLO			RCLA			RCLL			RCLP			TRXO			TRXA			TRXL			TRXP			LHUO			LHUA			LHUL			LHUP			LRAO			LRAA			LRAL			LRAP			LHNO			LHNA			LHNL			LHNP			RHUO			RHUA			RHUL			RHUP			RRAO			RRAA			RRAL			RRAP			RHNO			RHNA			RHNL			RHNP			RBHD			*120			*121			*122			LHipAngles			LKneeAngles			LAbsAnkleAngle			LAnkleAngles			RHipAngles			RKneeAngles			RAnkleAngles			RAbsAnkleAngle			LPelvisAngles			RPelvisAngles			LFootProgressAngles			RFootProgressAngles			RNeckAngles			LNeckAngles			RSpineAngles			LSpineAngles			LShoulderAngles			LElbowAngles			LWristAngles			RShoulderAngles			RElbowAngles			RWristAngles			RThoraxAngles			LThoraxAngles			RHeadAngles			LHeadAngles			RHJC			LHJC			
		X1	Y1	Z1	X2	Y2	Z2	X3	Y3	Z3	X4	Y4	Z4	X5	Y5	Z5	X6	Y6	Z6	X7	Y7	Z7	X8	Y8	Z8	X9	Y9	Z9	X10	Y10	Z10	X11	Y11	Z11	X12	Y12	Z12	X13	Y13	Z13	X14	Y14	Z14	X15	Y15	Z15	X16	Y16	Z16	X17	Y17	Z17	X18	Y18	Z18	X19	Y19	Z19	X20	Y20	Z20	X21	Y21	Z21	X22	Y22	Z22	X23	Y23	Z23	X24	Y24	Z24	X25	Y25	Z25	X26	Y26	Z26	X27	Y27	Z27	X28	Y28	Z28	X29	Y29	Z29	X30	Y30	Z30	X31	Y31	Z31	X32	Y32	Z32	X33	Y33	Z33	X34	Y34	Z34	X35	Y35	Z35	X36	Y36	Z36	X37	Y37	Z37	X38	Y38	Z38	X39	Y39	Z39	X40	Y40	Z40	X41	Y41	Z41	X42	Y42	Z42	X43	Y43	Z43	X44	Y44	Z44	X45	Y45	Z45	X46	Y46	Z46	X47	Y47	Z47	X48	Y48	Z48	X49	Y49	Z49	X50	Y50	Z50	X51	Y51	Z51	X52	Y52	Z52	X53	Y53	Z53	X54	Y54	Z54	X55	Y55	Z55	X56	Y56	Z56	X57	Y57	Z57	X58	Y58	Z58	X59	Y59	Z59	X60	Y60	Z60	X61	Y61	Z61	X62	Y62	Z62	X63	Y63	Z63	X64	Y64	Z64	X65	Y65	Z65	X66	Y66	Z66	X67	Y67	Z67	X68	Y68	Z68	X69	Y69	Z69	X70	Y70	Z70	X71	Y71	Z71	X72	Y72	Z72	X73	Y73	Z73	X74	Y74	Z74	X75	Y75	Z75	X76	Y76	Z76	X77	Y77	Z77	X78	Y78	Z78	X79	Y79	Z79	X80	Y80	Z80	X81	Y81	Z81	X82	Y82	Z82	X83	Y83	Z83	X84	Y84	Z84	X85	Y85	Z85	X86	Y86	Z86	X87	Y87	Z87	X88	Y88	Z88	X89	Y89	Z89	X90	Y90	Z90	X91	Y91	Z91	X92	Y92	Z92	X93	Y93	Z93	X94	Y94	Z94	X95	Y95	Z95	X96	Y96	Z96	X97	Y97	Z97	X98	Y98	Z98	X99	Y99	Z99	X100	Y100	Z100	X101	Y101	Z101	X102	Y102	Z102	X103	Y103	Z103	X104	Y104	Z104	X105	Y105	Z105	X106	Y106	Z106	X107	Y107	Z107	X108	Y108	Z108	X109	Y109	Z109	X110	Y110	Z110	X111	Y111	Z111	X112	Y112	Z112	X113	Y113	Z113	X114	Y114	Z114	X115	Y115	Z115	X116	Y116	Z116	X117	Y117	Z117	X118	Y118	Z118	X119	Y119	Z119	X120	Y120	Z120	X121	Y121	Z121	X122	Y122	Z122	X123	Y123	Z123	X124	Y124	Z124	X125	Y125	Z125	X126	Y126	Z126	X127	Y127	Z127	X128	Y128	Z128	X129	Y129	Z129	X130	Y130	Z130	X131	Y131	Z131	X132	Y132	Z132	X133	Y133	Z133	X134	Y134	Z134	X135	Y135	Z135	X136	Y136	Z136	X137	Y137	Z137	X138	Y138	Z138	X139	Y139	Z139	X140	Y140	Z140	X141	Y141	Z141	X142	Y142	Z142	X143	Y143	Z143	X144	Y144	Z144	X145	Y145	Z145	X146	Y146	Z146	X147	Y147	Z147	X148	Y148	Z148	X149	Y149	Z149	X150	Y150	Z150	X151	Y151	Z151	

205	0.85000	-559.518	1648.821	214.660	-412.901	1656.430	215.233	-509.159	1534.666	334.107	-475.908	1429.314	353.429	-467.294	1221.737	396.915	-484.003	1358.735	220.056	-479.725	1148.353	174.212	-379.487	1371.300	373.539	-637.174	1446.352	300.089	-733.567	1299.003	306.299	-812.943	1229.916	289.622	-894.804	1154.707	294.955	-989.725	1101.280	294.960	-954.690	1055.830	285.586	-1005.715	1026.910	323.839	-312.690	1438.235	296.985	-243.062	1286.120	307.975	-196.937	1192.034	307.206	-109.160	1105.770	306.401	-17.840	1047.671	300.139	-55.715	1021.605	309.819	0.771	986.969	336.347	-612.647	954.392	200.069	-354.205	932.572	207.942	-539.831	991.329	383.812	-424.913	980.877	385.163	-486.152	966.599	398.373	-704.002	664.472	284.404	-681.509	495.722	329.253	-551.760	470.059	334.558	-724.943	266.752	352.920	-685.141	95.660	374.808	-605.351	99.741	347.245	-645.226	86.590	425.477	-663.127	71.356	219.340	-264.439	639.753	289.883	-263.983	493.358	304.840	-395.506	462.658	318.449	-185.724	268.041	353.283	-193.299	95.142	357.195	-277.302	97.385	349.763	-230.738	84.977	424.467	-216.745	65.427	217.661	-492.317	858.413	260.094	-488.647	836.888	79.956	-673.046	873.673	254.589	-476.515	1037.941	238.964	-616.930	489.011	324.507	-651.339	424.879	-53.038	-998.349	528.651	352.536	-582.682	866.043	257.341	-649.218	97.497	362.399	-769.136	73.444	11.687	-999.438	137.702	479.391	-618.831	465.957	326.739	-675.906	85.979	221.799	-653.674	285.254	219.869	-874.433	108.295	239.040	-658.557	85.979	421.568	-681.688	85.979	155.210	-674.278	152.404	154.566	-747.864	93.417	160.957	-675.906	85.979	221.799	-326.147	481.742	313.279	-365.780	422.576	-60.097	-696.504	412.538	363.559	-401.952	850.784	262.847	-232.134	96.179	353.759	-199.928	64.818	-19.744	-596.314	4.888	330.022	-320.792	459.783	315.585	-206.630	86.648	212.223	-255.368	281.930	208.925	-401.467	37.799	199.039	-220.220	86.648	413.063	-202.100	86.648	145.277	-218.346	151.742	144.177	-267.045	70.365	140.882	-206.630	86.648	212.223	NaN	NaN	NaN	NaN	NaN	NaN	NaN	NaN	NaN	NaN	NaN	NaN	-649.881	1390.993	295.298	-713.462	1420.194	126.523	-609.150	1568.435	310.655	-483.511	1358.711	227.039	-302.659	1383.618	289.748	-244.717	1418.225	108.900	-268.081	1195.356	264.801	-483.511	1358.711	227.039	-483.511	1358.711	227.039	-496.701	1359.361	39.637	-296.198	1364.563	213.875	-477.719	1170.937	225.980	-831.438	1261.605	265.067	-922.726	1420.265	134.255	-927.987	1354.901	445.601	-649.881	1390.993	295.299	-973.733	1078.787	283.445	-1117.249	1177.641	155.608	-1066.481	1168.411	456.872	-841.399	1248.808	266.354	-1051.096	969.735	327.992	-997.340	984.476	457.433	-946.277	881.688	294.488	-973.733	1078.787	283.445	-211.183	1191.136	263.740	-377.772	1128.167	143.839	-311.052	1119.869	439.923	-302.658	1383.618	289.748	-37.058	1032.565	298.299	-147.409	884.726	175.945	-140.032	959.082	479.960	-198.994	1180.036	266.159	38.608	927.609	337.905	38.259	975.162	464.586	150.787	998.551	311.584	-37.058	1032.565	298.299	NaN	NaN	NaN	-472.299	1390.147	361.102	-464.663	1530.453	331.814	NaN	NaN	NaN	0.055	-6.021	3.376	-0.809	-14.170	4.503	0.000	0.000	-5.081	0.005	13.485	-5.226	16.517	7.224	0.748	2.306	-11.521	1.502	-0.007	-0.223	-4.895	0.000	0.000	-4.895	-4.996	1.163	-6.713	4.996	-1.163	-6.713	6.390	-4.963	90.000	14.044	-3.871	90.000	NaN	NaN	NaN	NaN	NaN	NaN	7.227	-4.975	6.568	-7.227	4.975	6.568	-55.891	-231.531	-10.877	0.000	-0.000	-20.628	9.691	218.727	-10.307	-24.014	-127.801	-5.038	0.000	-0.000	-26.956	-13.742	137.774	4.575	-1.767	4.028	0.323	1.767	-4.028	0.323	NaN	NaN	NaN	NaN	NaN	NaN	-398.442	861.445	278.297	-568.983	876.957	276.292
206	0.85417	-559.590	1648.796	214.669	-413.123	1656.280	215.058	-509.130	1534.701	334.150	-475.784	1429.253	353.413	-467.354	1221.749	396.901	-484.379	1358.854	219.970	-479.776	1148.341	174.116	-379.542	1371.326	373.533	-636.961	1446.364	300.032	-733.583	1299.176	306.229	-812.986	1230.125	289.406	-895.043	1155.172	294.570	-990.232	1102.085	294.302	-955.138	1056.351	284.979	-1006.381	1027.492	322.816	-312.786	1438.342	297.032	-243.132	1286.049	307.881	-196.896	1191.842	306.636	-109.224	1105.827	306.301	-17.874	1047.659	299.921	-55.806	1021.661	309.651	0.673	987.007	336.215	-612.574	954.335	200.008	-354.166	932.605	208.088	-539.929	991.307	383.776	-424.930	980.923	385.168	-486.211	966.738	398.413	-703.997	664.473	284.405	-681.621	495.777	329.237	-551.776	470.086	334.640	-724.941	266.729	352.924	-685.136	95.678	374.824	-605.316	99.748	347.205	-645.235	86.605	425.483	-663.093	71.302	219.308	-264.425	639.807	290.052	-264.030	493.322	304.879	-395.429	462.508	318.428	-185.707	268.039	353.370	-193.259	95.125	357.175	-277.306	97.394	349.797	-230.747	85.054	424.555	-216.718	65.460	217.653	-492.276	858.443	260.198	-488.466	836.777	80.080	-673.006	873.641	254.546	-476.515	1037.959	238.938	-617.044	489.042	324.508	-651.373	424.943	-53.027	-998.433	528.818	352.435	-582.641	866.042	257.372	-649.219	97.509	362.396	-769.324	73.447	11.739	-999.394	137.626	479.582	-618.938	465.987	326.739	-675.873	85.988	221.790	-653.686	285.268	219.869	-874.409	108.258	238.987	-658.569	85.988	421.562	-681.641	85.988	155.200	-674.245	152.415	154.559	-747.819	93.411	160.932	-675.873	85.988	221.790	-326.207	481.704	313.216	-365.301	422.896	-60.319	-696.687	412.480	362.888	-401.911	850.844	263.023	-232.095	96.174	353.766	-200.156	64.684	-19.748	-596.276	4.808	330.327	-320.847	459.746	315.525	-206.571	86.646	212.234	-255.348	281.918	208.927	-401.396	37.757	199.024	-220.188	86.646	413.072	-202.032	86.646	145.288	-218.291	151.737	144.185	-266.973	70.349	140.885	-206.571	86.646	212.234	NaN	NaN	NaN	NaN	NaN	NaN	NaN	NaN	NaN	NaN	NaN	NaN	-649.675	1391.006	295.248	-713.302	1420.156	127.050	-609.040	1567.934	310.540	-483.877	1358.830	226.952	-302.759	1383.728	289.768	-244.727	1418.468	108.675	-268.146	1195.200	264.694	-483.877	1358.830	226.952	-483.877	1358.830	226.952	-497.333	1359.471	39.692	-296.706	1364.742	213.523	-478.026	1171.180	225.890	-830.379	1260.859	262.907	-915.502	1414.109	121.817	-934.004	1361.924	435.202	-649.675	1391.006	295.248	-974.230	1079.424	282.816	-1111.738	1173.328	145.030	-1073.757	1176.492	448.297	-840.449	1248.158	264.301	-1051.798	970.444	326.500	-998.822	984.681	456.086	-947.020	882.567	293.320	-974.230	1079.424	282.816	-210.647	1191.329	263.004	-375.805	1129.352	140.122	-312.904	1118.117	437.366	-302.759	1383.728	289.768	-37.119	1032.569	298.111	-145.748	886.153	172.927	-142.311	957.257	477.477	-198.500	1180.215	265.461	38.449	927.623	337.850	38.195	975.372	464.434	150.667	998.404	311.376	-37.119	1032.569	298.111	NaN	NaN	NaN	-472.304	1390.131	361.097	-440.468	1534.570	330.008	NaN	NaN	NaN	0.089	-6.059	3.333	-0.847	-14.212	4.497	0.000	0.000	-5.083	0.005	13.528	-5.229	16.486	7.193	0.654	2.330	-11.385	1.454	-0.007	-0.278	-4.902	0.000	0.000	-4.902	-4.983	1.208	-6.754	4.983	-1.208	-6.754	6.376	-4.950	90.000	14.056	-3.879	90.000	NaN	NaN	NaN	NaN	NaN	NaN	7.246	-5.099	6.600	-7.246	5.099	6.600	-55.587	-228.075	-11.474	-0.000	-0.000	-20.564	8.262	215.677	-10.697	-24.177	-128.811	-5.187	0.000	0.000	-26.905	-13.692	138.833	4.305	-1.786	4.112	0.324	1.786	-4.112	0.324	NaN	NaN	NaN	NaN	NaN	NaN	-398.367	861.532	278.390	-568.895	876.930	276.326
207	0.85833	-559.692	1648.775	214.675	-413.016	1656.403	215.177	-509.122	1534.766	334.202	-475.727	1429.311	353.493	-467.402	1221.769	396.866	-483.923	1358.762	219.978	-479.853	1148.305	174.046	-379.575	1371.333	373.520	-637.032	1446.578	300.216	-733.622	1299.350	306.197	-813.035	1230.337	289.229	-895.285	1155.592	294.198	-990.656	1102.803	293.687	-955.582	1056.861	284.363	-1007.169	1028.211	322.057	-312.826	1438.418	297.073	-243.467	1286.324	308.122	-197.088	1192.103	307.099	-109.266	1105.841	306.143	-17.985	1047.685	299.759	-55.862	1021.690	309.542	0.644	987.067	336.042	-612.545	954.317	200.018	-354.153	932.664	208.186	-539.965	991.413	383.787	-424.924	980.968	385.154	-486.266	966.762	398.408	-703.956	664.467	284.386	-681.428	495.750	329.245	-551.811	470.163	334.772	-724.941	266.733	352.927	-685.150	95.651	374.805	-605.409	99.785	347.380	-645.237	86.599	425.463	-663.076	71.310	219.307	-264.391	639.803	290.162	-264.113	493.385	304.967	-395.377	462.482	318.493	-185.708	268.034	353.410	-193.249	95.145	357.185	-277.253	97.350	349.744	-230.748	85.010	424.530	-216.780	65.502	217.617	-492.249	858.464	260.253	-488.372	836.789	80.138	-672.982	873.609	254.540	-476.533	1037.983	238.988	-616.846	489.047	324.534	-651.035	424.920	-52.983	-998.237	528.630	352.351	-582.616	866.037	257.397	-649.212	97.514	362.445	-768.648	73.411	11.543	-999.619	137.761	478.948	-618.751	465.993	326.767	-675.857	85.997	221.837	-653.609	285.270	219.912	-874.388	108.328	239.016	-658.570	85.997	421.611	-681.619	85.997	155.246	-674.203	152.421	154.604	-747.796	93.441	160.972	-675.857	85.997	221.837	-326.295	481.782	313.285	-365.289	423.025	-60.212	-696.752	412.654	362.837	-401.883	850.891	263.110	-232.083	96.165	353.745	-199.814	64.849	-19.855	-596.313	4.682	329.953	-320.931	459.825	315.589	-206.598	86.641	212.205	-255.425	281.901	208.909	-401.414	37.702	199.054	-220.156	86.641	413.048	-202.078	86.641	145.258	-218.354	151.727	144.159	-267.017	70.328	140.874	-206.598	86.641	212.205	NaN	NaN	NaN	NaN	NaN	NaN	NaN	NaN	NaN	NaN	NaN	NaN	-649.829	1391.243	295.389	-713.505	1420.698	126.556	-608.784	1568.732	310.873	-483.433	1358.734	226.960	-302.715	1383.822	289.790	-244.723	1418.668	109.073	-267.874	1195.694	264.697	-483.433	1358.734	226.960	-483.433	1358.734	226.960	-496.595	1359.491	39.525	-296.079	1364.370	213.827	-477.864	1170.922	225.810	-828.858	1259.610	260.214	-904.616	1404.055	105.254	-942.106	1371.076	419.481	-649.829	1391.243	295.389	-974.700	1080.009	282.208	-1103.078	1165.730	130.931	-1083.496	1187.091	435.213	-839.067	1247.038	261.753	-1052.909	971.460	325.570	-1000.267	985.333	455.246	-948.544	883.117	292.654	-974.700	1080.009	282.208	-211.362	1191.233	263.641	-378.228	1128.329	143.980	-311.013	1120.013	440.042	-302.715	1383.822	289.790	-37.221	1032.607	297.973	-147.807	884.764	175.812	-139.947	959.190	479.818	-199.172	1180.129	266.045	38.445	927.692	337.647	38.342	975.484	464.227	150.611	998.511	311.000	-37.221	1032.607	297.973	NaN	NaN	NaN	-472.355	1390.109	361.107	NaN	NaN	NaN	-464.670	1530.614	331.876	0.076	-6.060	3.332	-0.793	-14.121	4.500	0.000	0.000	-5.084	0.005	13.422	-5.228	16.456	7.201	0.644	2.358	-11.423	1.464	-0.007	-0.207	-4.891	0.000	0.000	-4.891	-4.969	1.229	-6.755	4.969	-1.229	-6.755	6.394	-4.946	90.000	14.070	-3.862	90.000	NaN	NaN	NaN	NaN	NaN	NaN	7.136	-5.036	6.645	-7.136	5.036	6.645	-54.905	-223.163	-12.084	-0.000	0.000	-20.490	6.649	211.109	-11.122	-24.038	-127.694	-5.051	0.000	0.000	-26.974	-13.799	137.853	4.529	-1.698	4.019	0.351	1.698	-4.019	0.351	NaN	NaN	NaN	NaN	NaN	NaN	-398.376	861.505	278.404	-568.884	876.985	276.378
208	0.86250	-559.756	1648.748	214.689	-413.389	1656.294	214.880	-509.122	1534.824	334.243	-475.714	1429.352	353.822	-467.429	1221.759	396.811	-484.275	1358.901	220.044	-479.845	1148.462	173.983	-379.650	1371.460	373.879	-636.750	1446.559	300.184	-733.555	1299.461	306.182	-813.097	1230.506	289.075	-895.502	1155.975	293.850	-990.940	1103.443	292.954	-956.165	1057.700	284.026	-1008.080	1029.039	321.473	-312.838	1438.502	297.130	-243.214	1286.136	307.752	-197.040	1192.195	306.962	-109.303	1106.038	306.135	-17.991	1047.737	299.603	-55.932	1021.742	309.391	0.568	987.114	335.956	-612.455	954.260	199.982	-354.125	932.341	208.107	-539.936	991.437	383.770	-424.946	981.006	385.156	-486.263	966.768	398.364	-703.927	664.446	284.360	-681.543	495.716	329.189	-551.739	470.202	334.945	-724.926	266.722	352.934	-685.155	95.657	374.812	-605.292	100.142	347.789	-645.240	86.617	425.500	-663.056	71.273	219.298	-264.411	639.925	290.431	-263.983	493.413	305.192	-395.357	462.487	318.633	-185.694	268.035	353.469	-193.308	94.994	357.190	-277.286	97.375	349.798	-230.714	85.039	424.524	-216.741	65.467	217.708	-492.268	858.334	260.275	-488.457	836.491	80.179	-672.986	873.668	254.591	-476.365	1037.817	238.843	-616.961	489.000	324.498	-651.044	424.941	-53.049	-998.361	528.662	352.200	-582.627	866.001	257.433	-649.164	97.678	362.634	-766.655	73.110	11.322	-1000.027	137.714	477.175	-618.858	465.946	326.745	-675.782	86.152	222.022	-653.666	285.439	220.111	-874.330	108.350	239.176	-658.522	86.152	421.798	-681.536	86.152	155.430	-674.164	152.581	154.793	-747.719	93.551	161.148	-675.782	86.152	222.022	-326.178	481.754	313.336	-364.090	423.132	-60.135	-696.559	412.323	361.832	-401.909	850.667	263.117	-232.142	96.095	353.772	-200.145	64.724	-19.843	-596.432	4.802	330.239	-320.823	459.794	315.638	-206.653	86.563	212.233	-255.380	281.848	208.941	-401.494	37.725	199.069	-220.223	86.563	413.075	-202.130	86.563	145.286	-218.372	151.658	144.189	-267.077	70.284	140.898	-206.653	86.563	212.233	NaN	NaN	NaN	NaN	NaN	NaN	NaN	NaN	NaN	NaN	NaN	NaN	-649.561	1391.232	295.306	-713.067	1420.766	127.113	-608.613	1568.078	310.899	-483.776	1358.865	227.026	-302.737	1383.913	289.780	-244.852	1418.994	108.785	-267.884	1195.545	264.417	-483.776	1358.865	227.026	-483.776	1358.865	227.026	-497.156	1359.834	39.791	-296.625	1364.655	213.683	-478.070	1171.242	225.647	-827.601	1258.586	258.246	-895.946	1396.264	93.806	-947.172	1377.398	407.420	-649.561	1391.232	295.306	-975.128	1080.704	281.671	-1096.261	1160.058	121.373	-1089.881	1194.729	424.834	-837.927	1246.134	259.886	-1054.138	972.413	324.880	-1002.224	986.474	455.049	-949.740	883.464	292.852	-975.128	1080.704	281.671	-211.293	1191.360	263.497	-377.960	1128.595	143.445	-311.241	1119.850	439.641	-302.737	1383.913	289.780	-37.259	1032.660	297.820	-147.673	885.069	175.251	-140.267	958.962	479.356	-199.110	1180.251	265.900	38.348	927.704	337.640	38.183	975.609	464.222	150.605	998.466	311.007	-37.259	1032.660	297.820	NaN	NaN	NaN	-472.302	1390.107	361.090	NaN	NaN	NaN	-464.418	1531.454	332.217	0.035	-6.026	3.266	-0.824	-13.826	4.450	0.000	0.000	-5.122	0.006	13.122	-5.260	16.541	7.018	0.604	2.303	-11.218	1.491	-0.008	-0.252	-4.889	0.000	0.000	-4.889	-5.028	1.208	-6.810	5.028	-1.208	-6.810	6.356	-4.938	90.000	14.041	-3.865	90.000	NaN	NaN	NaN	NaN	NaN	NaN	7.255	-5.077	6.754	-7.255	5.077	6.754	-54.545	-219.470	-12.566	-0.000	-0.000	-20.440	5.478	208.134	-11.328	-24.021	-127.854	-4.996	0.000	0.000	-26.946	-13.858	137.993	4.460	-1.742	4.089	0.421	1.742	-4.089	0.421	NaN	NaN	NaN	NaN	NaN	NaN	-398.325	861.473	278.515	-568.806	876.938	276.462
